# xmcd
# 
# Track frame offsets:
#     150
#     11984
#     27611
#     41238
#     59526
#     75684
#     93766
#     111019
#     133011
#     147486
#     163533
#     178928
# 
# Disc length: 2638
# 
# Revision: 1
# Processed by: cddbd v1.5.2PL0 Copyright (c) Steve Scherf et al.
# Submitted via: fre:ac v1.0.27
# 
DISCID=ab0a4c0c
DTITLE=Various Artist - Rec 45
DYEAR=0
DGENRE=Top 40
TTITLE0=Yolanda B Cool and DCup - - We No Speak Americano
TTITLE1=Phonkers - Rock Your Body
TTITLE2=Tom Dice - Lucy
TTITLE3=Clouseau - Gek Op Jou
TTITLE4=Natalia - Burning Star
TTITLE5=Robbie Williams and Gary Barlow - Shame
TTITLE6=Van Velzen - Take Me In
TTITLE7=Take That - The Flood
TTITLE8=Eliza Doolittle - Pack Up
TTITLE9=James Blunt - Stay The Night
TTITLE10=Pink - Raise Your Glass
TTITLE11=Romantics - Talking In Your Sleep
EXTD=
EXTT0=
EXTT1=
EXTT2=
EXTT3=
EXTT4=
EXTT5=
EXTT6=
EXTT7=
EXTT8=
EXTT9=
EXTT10=
EXTT11=
PLAYORDER=
